<svg xmlns="http://www.w3.org/2000/svg" viewBox="0 0 50 50"><path d="M 38 2 C 37.746094 2 37.476563 2.085938 37.28125 2.28125 L 25 14.59375 L 17.71875 7.28125 C 17.328125 6.890625 16.671875 6.890625 16.28125 7.28125 C 15.890625 7.671875 15.890625 8.328125 16.28125 8.71875 L 22.5625 15 L 6 15 C 2.691406 15 0 17.691406 0 21 L 0 44 C 0 47.308594 2.691406 50 6 50 L 44 50 C 47.308594 50 50 47.308594 50 44 L 50 21 C 50 17.691406 47.308594 15 44 15 L 27.4375 15 L 38.71875 3.71875 C 39.109375 3.328125 39.109375 2.671875 38.71875 2.28125 C 38.523438 2.085938 38.253906 2 38 2 Z M 20.5 19 C 34.953125 19 37 19.039063 37 32.5 C 37 45.960938 34.8125 46 20.5 46 C 6.121094 46 4 45.855469 4 32.5 C 4 19.148438 6.121094 19 20.5 19 Z M 43 26 C 44.105469 26 45 26.894531 45 28 C 45 29.105469 44.105469 30 43 30 C 41.894531 30 41 29.105469 41 28 C 41 26.894531 41.894531 26 43 26 Z M 43 35 C 44.105469 35 45 35.894531 45 37 C 45 38.105469 44.105469 39 43 39 C 41.894531 39 41 38.105469 41 37 C 41 35.894531 41.894531 35 43 35 Z"></path></svg>